<svg width="120" height="50" viewBox="0 0 120 50" fill="none" xmlns="http://www.w3.org/2000/svg">
<path d="M29.6016 32.0469C29.6016 30.6562 29.2422 29.6094 28.5234 28.9062C27.8203 28.1875 26.5312 27.4453 24.6562 26.6797C21.2344 25.3828 18.7734 23.8672 17.2734 22.1328C15.7734 20.3828 15.0234 18.3203 15.0234 15.9453C15.0234 13.0703 16.0391 10.7656 18.0703 9.03125C20.1172 7.28125 22.7109 6.40625 25.8516 6.40625C27.9453 6.40625 29.8125 6.85156 31.4531 7.74219C33.0938 8.61719 34.3516 9.85937 35.2266 11.4688C36.1172 13.0781 36.5625 14.9063 36.5625 16.9531H29.6953C29.6953 15.3594 29.3516 14.1484 28.6641 13.3203C27.9922 12.4766 27.0156 12.0547 25.7344 12.0547C24.5312 12.0547 23.5938 12.4141 22.9219 13.1328C22.25 13.8359 21.9141 14.7891 21.9141 15.9922C21.9141 16.9297 22.2891 17.7812 23.0391 18.5469C23.7891 19.2969 25.1172 20.0781 27.0234 20.8906C30.3516 22.0938 32.7656 23.5703 34.2656 25.3203C35.7812 27.0703 36.5391 29.2969 36.5391 32C36.5391 34.9688 35.5938 37.2891 33.7031 38.9609C31.8125 40.6328 29.2422 41.4688 25.9922 41.4688C23.7891 41.4688 21.7812 41.0156 19.9688 40.1094C18.1562 39.2031 16.7344 37.9062 15.7031 36.2188C14.6875 34.5312 14.1797 32.5391 14.1797 30.2422H21.0938C21.0938 32.2109 21.4766 33.6406 22.2422 34.5312C23.0078 35.4219 24.2578 35.8672 25.9922 35.8672C28.3984 35.8672 29.6016 34.5938 29.6016 32.0469ZM51.0234 41.4688C47.6172 41.4688 44.9609 40.4531 43.0547 38.4219C41.1484 36.3906 40.1953 33.4844 40.1953 29.7031V27.6875C40.1953 23.6875 41.0703 20.6016 42.8203 18.4297C44.5703 16.2578 47.0781 15.1719 50.3438 15.1719C53.5312 15.1719 55.9297 16.1953 57.5391 18.2422C59.1484 20.2734 59.9688 23.2891 60 27.2891V30.5469H46.8047C46.8984 32.4219 47.3125 33.7969 48.0469 34.6719C48.7812 35.5312 49.9141 35.9609 51.4453 35.9609C53.6641 35.9609 55.5156 35.2031 57 33.6875L59.6016 37.6953C58.7891 38.8203 57.6094 39.7344 56.0625 40.4375C54.5156 41.125 52.8359 41.4688 51.0234 41.4688ZM46.8516 25.9062H53.4844V25.2969C53.4531 23.7812 53.2031 22.6328 52.7344 21.8516C52.2656 21.0703 51.4531 20.6797 50.2969 20.6797C49.1406 20.6797 48.2969 21.0938 47.7656 21.9219C47.25 22.75 46.9453 24.0781 46.8516 25.9062ZM75.7969 41C75.6094 40.6094 75.4219 39.9531 75.2344 39.0312C74.0469 40.6562 72.4375 41.4688 70.4062 41.4688C68.2812 41.4688 66.5156 40.7656 65.1094 39.3594C63.7188 37.9531 63.0234 36.1328 63.0234 33.8984C63.0234 31.2422 63.8672 29.1875 65.5547 27.7344C67.2578 26.2812 69.7031 25.5391 72.8906 25.5078H74.9062V23.4688C74.9062 22.3281 74.7109 21.5234 74.3203 21.0547C73.9297 20.5859 73.3594 20.3516 72.6094 20.3516C70.9531 20.3516 70.125 21.3203 70.125 23.2578H63.4922C63.4922 20.9141 64.3672 18.9844 66.1172 17.4688C67.8828 15.9375 70.1094 15.1719 72.7969 15.1719C75.5781 15.1719 77.7266 15.8984 79.2422 17.3516C80.7734 18.7891 81.5391 20.8516 81.5391 23.5391V35.4688C81.5703 37.6562 81.8828 39.3672 82.4766 40.6016V41H75.7969ZM71.8828 36.2656C72.6172 36.2656 73.2422 36.1172 73.7578 35.8203C74.2734 35.5234 74.6562 35.1719 74.9062 34.7656V29.4922H73.3125C72.1875 29.4922 71.2969 29.8516 70.6406 30.5703C70 31.2891 69.6797 32.25 69.6797 33.4531C69.6797 35.3281 70.4141 36.2656 71.8828 36.2656ZM92.4141 15.6406L92.6016 18.1484C94.1016 16.1641 96.0625 15.1719 98.4844 15.1719C102.844 15.1719 105.086 18.2266 105.211 24.3359V41H98.5547V24.8281C98.5547 23.3906 98.3359 22.3516 97.8984 21.7109C97.4766 21.0547 96.7266 20.7266 95.6484 20.7266C94.4453 20.7266 93.5078 21.3438 92.8359 22.5781V41H86.1797V15.6406H92.4141Z" fill="url(#paint0_linear_659_431)"/>
<rect x="108" y="36.1459" width="5" height="5" transform="rotate(-1.67256 108 36.1459)" fill="#CFE8BC"/>
<defs>
<linearGradient id="paint0_linear_659_431" x1="36.5" y1="10.5" x2="74.5" y2="41" gradientUnits="userSpaceOnUse">
<stop stop-color="#5DB5B4"/>
<stop offset="1" stop-color="#CFE8BC"/>
</linearGradient>
</defs>
</svg>
